<svg width="400" height="400" viewBox="0 0 20 20" xmlns="http://www.w3.org/2000/svg">
  <rect width="20" height="20" fill="#f7f7f7"/>
  <circle cx="10" cy="10" r="0.8" fill="#e74c3c" />
  <text x="10" y="11.5" font-family="monospace" font-size="0.6" text-anchor="middle" fill="#000">Вы / You</text>
  <!-- Suburbs in viewport markers converted to viewport coordinates -->
  <circle cx="2" cy="2" r="0.4" fill="#2c3e50" />
  <text x="2.6" y="2.6" font-family="monospace" font-size="0.6" fill="#000">Azure Slope</text>
  <circle cx="3" cy="6" r="0.4" fill="#2c3e50" />
  <text x="3.6" y="6.6" font-family="monospace" font-size="0.6" fill="#000">Emerald Dell</text>
  <circle cx="10" cy="8" r="0.4" fill="#2c3e50" />
  <text x="10.6" y="8.6" font-family="monospace" font-size="0.6" fill="#000">Crystal Glade</text>
  <circle cx="15" cy="10" r="0.4" fill="#2c3e50" />
  <text x="15.6" y="10.6" font-family="monospace" font-size="0.6" fill="#000">Gleam Grove</text>
  <circle cx="6" cy="12" r="0.4" fill="#2c3e50" />
  <text x="6.6" y="12.6" font-family="monospace" font-size="0.6" fill="#000">Snowshore</text>
  <circle cx="9" cy="2" r="0.4" fill="#2c3e50" />
  <text x="9.6" y="2.6" font-family="monospace" font-size="0.6" fill="#000">Wind Apex</text>
  <circle cx="12" cy="6" r="0.4" fill="#2c3e50" />
  <text x="12.6" y="6.6" font-family="monospace" font-size="0.6" fill="#000">Quartz Valley</text>
  <circle cx="16" cy="6" r="0.4" fill="#2c3e50" />
  <text x="16.6" y="6.6" font-family="monospace" font-size="0.6" fill="#000">Flame Slope</text>
  <circle cx="4" cy="16" r="0.4" fill="#2c3e50" />
  <text x="4.6" y="16.6" font-family="monospace" font-size="0.6" fill="#000">Chill Field</text>
  <circle cx="3" cy="18" r="0.4" fill="#2c3e50" />
  <text x="3.6" y="18.6" font-family="monospace" font-size="0.6" fill="#000">Ice Creek</text>
  <circle cx="492" cy="492" r="0.4" fill="#2c3e50" />
  <text x="492.6" y="492.6" font-family="monospace" font-size="0.6" fill="#000">Хрустальный Пик / Crystal Peak</text>
</svg>
